# xmcd
#
# Track frame offsets:
#	150
#	16430
#	31712
#	48987
#	62764
#	77886
#	92201
#	103084
#	118587
#	131933
#	143914
#	155896
#	164972
#	180267
#	193446
#
# Disc length: 2737 seconds
#
# Revision: 0
# Processed by: cddbd v1.5.2PL0 Copyright (c) Steve Scherf et al.
# Submitted via: EasyCDDAExtractor 16.0.8.2
#
DISCID=dc0aaf0f
DTITLE=Συλλογικός δίσκος - Τα καλύτερα ελληνικά τραγούδια 1974
DYEAR=1974
DGENRE=Λαϊκή
TTITLE0=Αλεξίου Χάρις - Οδός Αριστοτέλους [Γ. Σπανού-Λ. Παπαδόπουλου]
TTITLE1=Βίσση Άννα - Σ' αγαπώ [Σ. Κουγιουμτζή-Ά. Δασκαλόπουλου]
TTITLE2=Τσανακλίδου Τάνια - Νανούρισμα [Χ. Λεοντή-Φ.Γ.Λόρκα, απόδ. Λ.Παπαδόπου
TTITLE2=λου]
TTITLE3=Μητσιάς Μανώλης - Λούζεται η αγάπη μου [ΧΛεοντή-ΦΓΛόρκα, απ. ΛΠαπαδόπο
TTITLE3=υλου]
TTITLE4=Κανελίδου Αλέκα - Άσε με να φύγω [Γ. Μανίκα-Ν. Ελληναίου]
TTITLE5=Αλεξίου Χάρις - Γύριζαν τα τραίνα [Γ. Σπανού-Λ. Παπαδόπουλου]
TTITLE6=Ξυλούρης Νίκος - Φίλοι και αδέλφια [Σ. Ξαρχάκου-Ι. Καμπανέλλη]
TTITLE7=Μοσχολιού Βίκυ - Νυν και αεί [Σ. Ξαρχάκου-Ν. Γκάτσου]
TTITLE8=Λαβίνα - Τούτο το βράδυ [Δ. Μούτση]
TTITLE9=Μοσχολιού Βίκυ - Οχτώ χωριάτες [Γ. Μαρκόπουλου-Γ. Σκούρτη]
TTITLE10=Παπακωνσταντίνου Βασίλης - Στρατιώτης [Μ. Λοΐζου-Κ. Μητρόπουλου]
TTITLE11=Ξυλούρης Νίκος - Βενετιά γειά σου χαρά σου [Σ. Ξαρχάκου-Ν. Γκάτσου]
TTITLE12=Μοσχολιού Βίκυ - Εμείς που μείναμε [Σ. Ξαρχάκου-Ν. Γκάτσου]
TTITLE13=Καζαντζίδης Στέλιος - Η ζωή μου όλη [Ά. Πάνου]
TTITLE14=Κωχ Μαρίζα - Σαν τον καραγκιόζη [Δ. Σαββόπουλου]
EXTD=
EXTT0=
EXTT1=
EXTT2=
EXTT3=
EXTT4=
EXTT5=
EXTT6=
EXTT7=
EXTT8=
EXTT9=
EXTT10=
EXTT11=
EXTT12=
EXTT13=
EXTT14=
PLAYORDER=
